<svg xmlns="http://www.w3.org/2000/svg" viewBox="0 0 400 75"><defs><style>.cls-1{fill:#007a9d;}.cls-2{font-size:33.64px;font-family:Helvetica-Bold, Helvetica;font-weight:700;}.cls-2,.cls-3{fill:#fff;}</style></defs><title>400x75 white</title><g id="Layer_1" data-name="Layer 1"><rect class="cls-1" width="400" height="75" rx="16.99"/></g><g id="Layer_2" data-name="Layer 2"><text class="cls-2" transform="translate(93.98 49.22)">Login with ID4me</text><rect class="cls-3" x="19" y="11.5" width="52" height="52" rx="8.62"/><path class="cls-1" d="M37.87,21.2H52.93A9.09,9.09,0,0,1,62,30.28V44.53a9.12,9.12,0,0,1-9.09,9.09H41.69l4-5.68h7a3.71,3.71,0,0,0,3.7-3.7V30.6a3.67,3.67,0,0,0-3.7-3.69H43.55V45.52l-5.68,8.1V21.2Z"/><polygon class="cls-1" points="27.98 21.2 27.98 53.59 33.66 53.59 33.66 21.2 27.98 21.2 27.98 21.2"/></g></svg>